<svg xmlns="http://www.w3.org/2000/svg" viewBox="0 0 640 480">
  <rect width="640" height="480" fill="#dbeafe"/>
  <rect x="118" y="38" width="404" height="404" rx="18" fill="#1f2937"/>
  <g>
    <rect x="140" y="60" width="50" height="50" fill="#f8fafc"/>
    <rect x="190" y="60" width="50" height="50" fill="#2563eb"/>
    <rect x="240" y="60" width="50" height="50" fill="#f8fafc"/>
    <rect x="290" y="60" width="50" height="50" fill="#2563eb"/>
    <rect x="340" y="60" width="50" height="50" fill="#f8fafc"/>
    <rect x="390" y="60" width="50" height="50" fill="#2563eb"/>
    <rect x="440" y="60" width="50" height="50" fill="#f8fafc"/>
    <rect x="490" y="60" width="50" height="50" fill="#2563eb"/>
    <rect x="140" y="110" width="50" height="50" fill="#2563eb"/>
    <rect x="190" y="110" width="50" height="50" fill="#f8fafc"/>
    <rect x="240" y="110" width="50" height="50" fill="#2563eb"/>
    <rect x="290" y="110" width="50" height="50" fill="#f8fafc"/>
    <rect x="340" y="110" width="50" height="50" fill="#2563eb"/>
    <rect x="390" y="110" width="50" height="50" fill="#f8fafc"/>
    <rect x="440" y="110" width="50" height="50" fill="#2563eb"/>
    <rect x="490" y="110" width="50" height="50" fill="#f8fafc"/>
  </g>
  <g fill="#1d4ed8" stroke="#eff6ff" stroke-width="6">
    <circle cx="215" cy="85" r="20"/>
    <circle cx="315" cy="85" r="20"/>
    <circle cx="415" cy="85" r="20"/>
    <circle cx="165" cy="135" r="20"/>
    <circle cx="265" cy="135" r="20"/>
    <circle cx="365" cy="135" r="20"/>
    <circle cx="465" cy="135" r="20"/>
  </g>
  <g fill="#111827" stroke="#93c5fd" stroke-width="6">
    <circle cx="165" cy="335" r="20"/>
    <circle cx="265" cy="335" r="20"/>
    <circle cx="365" cy="335" r="20"/>
    <circle cx="465" cy="335" r="20"/>
    <circle cx="215" cy="385" r="20"/>
    <circle cx="315" cy="385" r="20"/>
    <circle cx="415" cy="385" r="20"/>
  </g>
  <text x="320" y="456" text-anchor="middle" font-family="Arial, sans-serif" font-size="44" font-weight="700" fill="#1f2937">Damas</text>
</svg>
